<svg xmlns="http://www.w3.org/2000/svg" viewBox="0 0 451.99 456"><title>Logo</title><path d="M114.3,109.35c-.11-11,9.35-21.72,23.08-18.84,7.47,1.56,14.32,9.91,14.28,18.15a257.29,257.29,0,0,0,3.53,43.83,254.47,254.47,0,0,0,17.63,60.16c2.68.85,3,3.52,3.85,5.52,4.6,10.25,10.3,19.89,15.86,29.62,6.69,10.52,14.24,20.41,21.94,30.21,3.72,4.73,7.77,9.1,11.86,13.47.52.56.94,1.16,1.4,1.75,2.71,2,4.87,4.67,7.34,7,5.63,5.24,11.39,10.34,17.37,15.19,1.3,1.05,2.69,2.11,3,3.94a260.3,260.3,0,0,0,43.28,26.92,256.25,256.25,0,0,0,48.45,18.33,252,252,0,0,0,65.21,8.82c2.39,0,3,.85,3,3.13q-.14,15.83,0,31.66c0,2.17-.7,2.63-2.77,2.64a289.85,289.85,0,0,1-78.88-11.07,296.44,296.44,0,0,1-74.26-32.28,294.43,294.43,0,0,1-32.28-22.58c-2.12,0-3.56-1.24-5.14-2.51a251.68,251.68,0,0,1-21.33-19.71c-1-1-2-2-2-3.57C186,305.28,173.68,291,163.92,274.81c-1-.47-2-.69-2.77-1.76a237.53,237.53,0,0,1-16-28,6.27,6.27,0,0,1-.52-3.8,308.72,308.72,0,0,1-18.44-47.68c-.85-2.88-1.54-5.8-2.3-8.7a6.64,6.64,0,0,1-2.57-3.81,240.55,240.55,0,0,1-4.88-24.58c-1.29-9.48-3.15-19-3-28.57C113.46,121.71,114.2,115.54,114.3,109.35Z" style="fill:#f2b717"/><path d="M309.42,241c2.45,3.33,6.07,5.29,9.34,7.57a166.1,166.1,0,0,0,39.46,20.38,163.91,163.91,0,0,0,43.44,9.32c3.84.27,7.7.45,11.55.55,1.58,0,2.18.66,2.18,2.2,0,11.2,0,22.41,0,33.62,0,2.11-1.19,2.15-2.74,2.15a190.45,190.45,0,0,1-30.07-2.51,204.36,204.36,0,0,1-55.34-17.05,170.38,170.38,0,0,1-27.35-15.7,96.51,96.51,0,0,1-8.84-6.87,6.24,6.24,0,0,1-4.13-1.42c-8.52-6.24-15.92-13.69-23.32-21.16-.92-.93-1.07-2.47-2.47-3A199.79,199.79,0,0,1,244.85,229c-6.18-8.65-11.23-17.95-16.35-27.23-1-1.73-.94-3.84-2.22-5.43-2.57-3.77-3.88-8.12-5.57-12.28a173.09,173.09,0,0,1-7.8-24.7c-2.23-9.3-4.14-18.73-4.67-28.35-.18-3.36.2-6.71-.06-10.07,0-4.52-.31-9.09.25-13.54.91-7.19,4.33-13.14,11.32-16,6.75-2.75,13.5-2,19.11,2.77,4.94,4.23,7.07,10,7,16.56a163.35,163.35,0,0,0,13.71,65.54,165.15,165.15,0,0,0,21.24,36.09,4.92,4.92,0,0,1,3.45,2.14,145,145,0,0,0,22.88,23.25A7.19,7.19,0,0,1,309.42,241Z" style="fill:#f2b717"/><path d="M198.78,319.1c2.1,2,4.25,3.95,6.28,6a250.72,250.72,0,0,0,22.2,19.77c-6,4.37-11.91,8.88-18,13.09a301.25,301.25,0,0,1-45,25.64A297,297,0,0,1,103.68,404a279.85,279.85,0,0,1-62.75,6.82c-1.59,0-2.19-.49-2.18-2.08q0-16.53,0-33.06c0-2,1-2.29,2.67-2.29a239.13,239.13,0,0,0,44.92-4.21,267.15,267.15,0,0,0,56.21-17,273.73,273.73,0,0,0,53.63-30.93C197.07,320.59,197.91,319.82,198.78,319.1Z" style="fill:#f18620"/><path d="M302.61,107.34c1.13-7.74,4.8-13.73,12.45-16.24,7.25-2.38,14.06-1.11,19.43,4.64,3.94,4.22,5.44,9.51,5.65,15.25,1,28.24,14,49.41,38.07,63.8a71.34,71.34,0,0,0,34.48,9.92c2.12.07,2.74.81,2.73,2.83q-.1,16.1,0,32.2c0,1.93-.57,2.62-2.6,2.54-31.56-1.3-58.33-13.18-80.09-36.15-.65-.69-1.31-1.35-2-2-1.92.22-2.83-1.17-3.83-2.42A124.28,124.28,0,0,1,312,158.17a87.43,87.43,0,0,1-6-15.5c-1.16-4.45-3-8.77-3.09-13.44C302.85,121.93,301.86,114.65,302.61,107.34Z" style="fill:#f2b717"/><path d="M144.6,241.22a289.1,289.1,0,0,0,19.32,33.6c-2.82.57-4.83,2.61-6.81,4.33-5.89,5.1-12.64,8.79-19.36,12.5a199.84,199.84,0,0,1-48.44,19,200.8,200.8,0,0,1-47.2,6.16c-2.5,0-3.45-.57-3.41-3.26.14-10.54.1-21.09,0-31.64,0-2.21.5-3.12,3-3.16a167.28,167.28,0,0,0,62.56-13.15,172.35,172.35,0,0,0,38.37-22.39A23.23,23.23,0,0,0,144.6,241.22Z" style="fill:#f18620"/><path d="M114.3,109.35c0,3.77.11,7.53.11,11.3,0,9.62,1.47,19.1,2.41,28.64.7,7,2.46,13.86,3.42,20.84.69,5,2.38,9.82,3.62,14.71-1.4-.6-1.8.69-2.44,1.37a112.67,112.67,0,0,1-55.36,32.67,117.58,117.58,0,0,1-24.85,3.42c-1.9.07-2.48-.61-2.47-2.4q.06-16.26,0-32.5c0-1.88.56-2.66,2.58-2.69a65.85,65.85,0,0,0,18.34-3c17.56-5.4,31.72-15.49,41.92-30.94A71.76,71.76,0,0,0,114,111.56,16.81,16.81,0,0,1,114.3,109.35Z" style="fill:#f18620"/><path d="M208.18,121c.78,6,1.62,12.08,2.33,18.13a167.57,167.57,0,0,0,4.5,22.31,188.38,188.38,0,0,0,6.4,20.4A125.23,125.23,0,0,0,227.46,196c-.72,4.75-3.44,8.63-5.61,12.73a197.34,197.34,0,0,1-18.27,28c-2.68,3.49-5.53,6.86-8.38,10.23-.82,1-1.73,2.12-3.32,1.33-2.35-1.54-3-4.26-4.32-6.47a219.26,219.26,0,0,1-14.74-29.19,148,148,0,0,0,18.66-29.76,162.51,162.51,0,0,0,13.57-40.49,134.63,134.63,0,0,0,2.67-19A4.11,4.11,0,0,1,208.18,121Z" style="fill:#f18620"/><path d="M302.61,107.34a103.82,103.82,0,0,0,2.11,24.89,109.16,109.16,0,0,0,9.56,27.19,127.72,127.72,0,0,0,16.48,24.69C328,192.3,326,200.72,323,208.84c-4,10.94-8.16,21.81-13.62,32.13-3.37-1.77-6.05-4.43-8.78-7a173,173,0,0,1-19.79-21.6c1.85-1.57,2.08-4,2.91-6a255.81,255.81,0,0,0,15.64-57.52,245.56,245.56,0,0,0,2.86-38.77A21.62,21.62,0,0,1,302.61,107.34Z" style="fill:#f18620"/><path d="M262.11,248.37c5.06,5.44,10.28,10.69,15.79,15.69,4.2,3.79,8.71,7.15,13.18,10.58-2.14,1-2.87,3.19-4,5C279.35,292,269.87,303,260.19,313.79c-1.61,1.81-3.7,3.22-4.72,5.53a147.39,147.39,0,0,1-13.23-10.81c-5.27-4.61-10.41-9.37-15.27-14.42.17-3,2.75-4.44,4.41-6.33a351.35,351.35,0,0,0,28.46-37.43A4.34,4.34,0,0,1,262.11,248.37Z" style="fill:#f18620"/><path d="M245.68,43.15c0,3.48.13,7,0,10.44-.42,10.18-8.87,17.8-19.33,17.55a18.71,18.71,0,0,1-18-18.46q0-9.74,0-19.48a18.55,18.55,0,0,1,18.07-18.35c10.4-.25,18.78,7.2,19.27,17.29C245.83,35.8,245.68,39.48,245.68,43.15Z" style="fill:#f18620"/></svg>